<?xml version="1.0" encoding="utf-8"?>
<!-- Generator: Adobe Illustrator 24.2.3, SVG Export Plug-In . SVG Version: 6.00 Build 0)  -->
<svg version="1.1" id="Layer_1" xmlns="http://www.w3.org/2000/svg" xmlns:xlink="http://www.w3.org/1999/xlink" x="0px" y="0px"
	 viewBox="0 0 131.7 119.8" style="enable-background:new 0 0 131.7 119.8;" xml:space="preserve">
<style type="text/css">
	.st0{display:none;fill:#FBBC05;}
	.st1{fill:#C321CC;}
</style>
<polyline class="st0" points="52.6,87.1 52.6,61 46.3,61 46.3,25.5 31.8,25.5 31.8,87.1 "/>
<polyline class="st0" points="77.5,87.1 77.5,61 71.3,61 71.3,25.5 63,25.5 63,61 56.7,61 56.7,87.1 "/>
<polyline class="st0" points="102.5,87.1 102.5,61 102.5,25.5 96.2,25.5 87.9,25.5 87.9,61 81.7,61 81.7,87.1 "/>
<path class="st1" d="M65.8,10.6c-27.2,0-49.3,22.1-49.3,49.3s22.1,49.3,49.3,49.3s49.3-22.1,49.3-49.3S93.1,10.6,65.8,10.6z
	 M29.1,64.6c-0.2,1.6-0.4,3.1-0.9,4.7c-0.5-1.6-0.8-3.1-0.9-4.7C27.1,63,27,61.5,27,59.9c0-1.6,0.1-3.1,0.3-4.7
	c0.2-1.6,0.4-3.1,0.9-4.7c0.5,1.6,0.8,3.1,0.9,4.7c0.2,1.6,0.3,3.1,0.3,4.7C29.3,61.5,29.2,63,29.1,64.6z M34.9,66.8
	c-0.2,2.3-0.4,4.6-0.9,6.9c-0.5-2.3-0.8-4.6-0.9-6.9c-0.2-2.3-0.3-4.6-0.3-6.9c0-2.3,0.1-4.6,0.3-6.9c0.2-2.3,0.4-4.6,0.9-6.9
	c0.5,2.3,0.8,4.6,0.9,6.9c0.2,2.3,0.3,4.6,0.3,6.9C35.1,62.2,35,64.5,34.9,66.8z M40.7,71.6c-0.2,3.9-0.4,7.8-0.9,11.7
	c-0.5-3.9-0.8-7.8-0.9-11.7c-0.2-3.9-0.2-7.8-0.3-11.7c0-3.9,0.1-7.8,0.3-11.7s0.4-7.8,0.9-11.7c0.5,3.9,0.8,7.8,0.9,11.7
	c0.2,3.9,0.2,7.8,0.3,11.7C40.9,63.8,40.9,67.7,40.7,71.6z M46.5,65.9c-0.2,2-0.4,4-0.9,6c-0.5-2-0.8-4-0.9-6c-0.2-2-0.3-4-0.3-6
	s0.1-4,0.3-6s0.4-4,0.9-6c0.5,2,0.8,4,0.9,6c0.2,2,0.3,4,0.3,6C46.7,61.9,46.6,63.9,46.5,65.9z M52.3,69.4c-0.2,3.2-0.4,6.3-0.9,9.5
	c-0.5-3.2-0.8-6.3-0.9-9.5c-0.2-3.2-0.2-6.3-0.3-9.5c0-3.2,0.1-6.3,0.3-9.5s0.4-6.3,0.9-9.5c0.5,3.2,0.8,6.3,0.9,9.5
	c0.2,3.2,0.2,6.3,0.3,9.5C52.5,63.1,52.5,66.2,52.3,69.4z M58.1,72.1c-0.2,4.1-0.4,8.1-0.9,12.2c-0.5-4.1-0.8-8.1-0.9-12.2
	C56,68,56,64,55.9,59.9c0-4.1,0.1-8.1,0.3-12.2s0.4-8.1,0.9-12.2c0.5,4.1,0.8,8.1,0.9,12.2c0.2,4.1,0.2,8.1,0.3,12.2
	C58.3,64,58.3,68,58.1,72.1z M63.9,74.2c-0.2,4.8-0.4,9.5-0.9,14.3c-0.5-4.8-0.8-9.5-0.9-14.3c-0.2-4.8-0.2-9.5-0.3-14.3
	c0-4.8,0.1-9.5,0.3-14.3s0.4-9.5,0.9-14.3c0.5,4.8,0.8,9.5,0.9,14.3c0.2,4.8,0.2,9.5,0.3,14.3C64.1,64.7,64.1,69.4,63.9,74.2z
	 M69.7,70.8c-0.2,3.6-0.4,7.3-0.9,10.9c-0.5-3.6-0.8-7.3-0.9-10.9c-0.2-3.6-0.2-7.3-0.3-10.9c0-3.6,0.1-7.3,0.3-10.9
	c0.2-3.6,0.4-7.3,0.9-10.9c0.5,3.6,0.8,7.3,0.9,10.9c0.2,3.6,0.2,7.3,0.3,10.9C69.9,63.5,69.9,67.2,69.7,70.8z M75.5,68.6
	c-0.2,2.9-0.4,5.8-0.9,8.7c-0.5-2.9-0.8-5.8-0.9-8.7c-0.2-2.9-0.2-5.8-0.3-8.7c0-2.9,0.1-5.8,0.3-8.7c0.2-2.9,0.4-5.8,0.9-8.7
	c0.5,2.9,0.8,5.8,0.9,8.7c0.2,2.9,0.2,5.8,0.3,8.7C75.7,62.8,75.7,65.7,75.5,68.6z M81.3,64.6c-0.2,1.6-0.4,3.1-0.9,4.7
	c-0.5-1.6-0.8-3.1-0.9-4.7c-0.2-1.6-0.3-3.1-0.3-4.7c0-1.6,0.1-3.1,0.3-4.7c0.2-1.6,0.4-3.1,0.9-4.7c0.5,1.6,0.8,3.1,0.9,4.7
	c0.2,1.6,0.3,3.1,0.3,4.7C81.6,61.5,81.5,63,81.3,64.6z M87.1,68.6c-0.2,2.9-0.4,5.8-0.9,8.7c-0.5-2.9-0.8-5.8-0.9-8.7
	C85,65.7,85,62.8,85,59.9c0-2.9,0.1-5.8,0.3-8.7c0.2-2.9,0.4-5.8,0.9-8.7c0.5,2.9,0.8,5.8,0.9,8.7c0.2,2.9,0.2,5.8,0.3,8.7
	C87.3,62.8,87.3,65.7,87.1,68.6z M92.9,73.2c-0.2,4.4-0.4,8.9-0.9,13.3c-0.5-4.4-0.8-8.9-0.9-13.3c-0.2-4.4-0.2-8.9-0.3-13.3
	c0-4.4,0.1-8.9,0.3-13.3c0.2-4.4,0.4-8.9,0.9-13.3c0.5,4.4,0.8,8.9,0.9,13.3c0.2,4.4,0.2,8.9,0.3,13.3
	C93.1,64.3,93.1,68.8,92.9,73.2z M98.7,69.1c-0.2,3.1-0.4,6.1-0.9,9.2c-0.5-3.1-0.8-6.1-0.9-9.2c-0.2-3.1-0.2-6.1-0.3-9.2
	c0-3.1,0.1-6.1,0.3-9.2c0.2-3.1,0.4-6.1,0.9-9.2c0.5,3.1,0.8,6.1,0.9,9.2c0.2,3.1,0.2,6.1,0.3,9.2C99,63,98.9,66,98.7,69.1z
	 M103.6,69.2c-0.5-1.6-0.8-3.1-0.9-4.7c-0.2-1.6-0.3-3.1-0.3-4.7c0-1.6,0.1-3.1,0.3-4.7c0.2-1.6,0.4-3.1,0.9-4.7
	c0.5,1.6,0.8,3.1,0.9,4.7c0.2,1.6,0.3,3.1,0.3,4.7c0,1.6-0.1,3.1-0.3,4.7C104.3,66.1,104.1,67.7,103.6,69.2z"/>
</svg>
